<svg xmlns="http://www.w3.org/2000/svg" xmlns:xlink="http://www.w3.org/1999/xlink" width="1080" zoomAndPan="magnify" viewBox="0 0 810 809.999993" height="1080" preserveAspectRatio="xMidYMid meet" version="1.0"><defs><clipPath id="459186801d"><path d="M 127.746094 409.34375 L 209.039062 409.34375 L 209.039062 731.101562 L 127.746094 731.101562 Z M 127.746094 409.34375 " clip-rule="nonzero"/></clipPath><clipPath id="811d8b3daa"><path d="M 0.746094 0.34375 L 82.039062 0.34375 L 82.039062 322.101562 L 0.746094 322.101562 Z M 0.746094 0.34375 " clip-rule="nonzero"/></clipPath><clipPath id="27adbdd89f"><rect x="0" width="83" y="0" height="323"/></clipPath><clipPath id="3d80378ef4"><path d="M 246.125 334.878906 L 327.417969 334.878906 L 327.417969 731.101562 L 246.125 731.101562 Z M 246.125 334.878906 " clip-rule="nonzero"/></clipPath><clipPath id="7bdcf77168"><path d="M 0.125 0.878906 L 81.417969 0.878906 L 81.417969 397.101562 L 0.125 397.101562 Z M 0.125 0.878906 " clip-rule="nonzero"/></clipPath><clipPath id="afaed97180"><rect x="0" width="82" y="0" height="398"/></clipPath><clipPath id="e881e30ad6"><path d="M 364.402344 199.90625 L 445.695312 199.90625 L 445.695312 731.101562 L 364.402344 731.101562 Z M 364.402344 199.90625 " clip-rule="nonzero"/></clipPath><clipPath id="606d37cd9c"><path d="M 0.402344 0.90625 L 81.695312 0.90625 L 81.695312 532.101562 L 0.402344 532.101562 Z M 0.402344 0.90625 " clip-rule="nonzero"/></clipPath><clipPath id="4b3c905be0"><rect x="0" width="82" y="0" height="533"/></clipPath><clipPath id="8631ecf2a0"><path d="M 482.683594 279.027344 L 563.972656 279.027344 L 563.972656 731.101562 L 482.683594 731.101562 Z M 482.683594 279.027344 " clip-rule="nonzero"/></clipPath><clipPath id="5f84000fb8"><path d="M 0.683594 0.0273438 L 81.972656 0.0273438 L 81.972656 452.101562 L 0.683594 452.101562 Z M 0.683594 0.0273438 " clip-rule="nonzero"/></clipPath><clipPath id="d0643e7410"><rect x="0" width="82" y="0" height="453"/></clipPath><clipPath id="931bc041aa"><path d="M 600.960938 78.898438 L 682.253906 78.898438 L 682.253906 731.101562 L 600.960938 731.101562 Z M 600.960938 78.898438 " clip-rule="nonzero"/></clipPath><clipPath id="86881be0b9"><path d="M 0.960938 0.898438 L 82.253906 0.898438 L 82.253906 653.101562 L 0.960938 653.101562 Z M 0.960938 0.898438 " clip-rule="nonzero"/></clipPath><clipPath id="579ff34e4b"><rect x="0" width="83" y="0" height="654"/></clipPath></defs><rect x="-81" width="972" fill="#ffffff" y="-80.999999" height="971.999992" fill-opacity="1"/><rect x="-81" width="972" fill="#151515" y="-80.999999" height="971.999992" fill-opacity="1"/><g clip-path="url(#459186801d)"><g transform="matrix(1, 0, 0, 1, 127, 409)"><g clip-path="url(#27adbdd89f)"><g clip-path="url(#811d8b3daa)"><path fill="#5e17eb" d="M 0.746094 0.34375 L 82.039062 0.34375 L 82.039062 322.019531 L 0.746094 322.019531 Z M 0.746094 0.34375 " fill-opacity="1" fill-rule="nonzero"/></g></g></g></g><g clip-path="url(#3d80378ef4)"><g transform="matrix(1, 0, 0, 1, 246, 334)"><g clip-path="url(#afaed97180)"><g clip-path="url(#7bdcf77168)"><path fill="#5e17eb" d="M 0.125 0.878906 L 81.417969 0.878906 L 81.417969 397.175781 L 0.125 397.175781 Z M 0.125 0.878906 " fill-opacity="1" fill-rule="nonzero"/></g></g></g></g><g clip-path="url(#e881e30ad6)"><g transform="matrix(1, 0, 0, 1, 364, 199)"><g clip-path="url(#4b3c905be0)"><g clip-path="url(#606d37cd9c)"><path fill="#5e17eb" d="M 0.402344 0.90625 L 81.695312 0.90625 L 81.695312 532.160156 L 0.402344 532.160156 Z M 0.402344 0.90625 " fill-opacity="1" fill-rule="nonzero"/></g></g></g></g><g clip-path="url(#8631ecf2a0)"><g transform="matrix(1, 0, 0, 1, 482, 279)"><g clip-path="url(#d0643e7410)"><g clip-path="url(#5f84000fb8)"><path fill="#5e17eb" d="M 0.683594 0.0273438 L 81.972656 0.0273438 L 81.972656 452.214844 L 0.683594 452.214844 Z M 0.683594 0.0273438 " fill-opacity="1" fill-rule="nonzero"/></g></g></g></g><g clip-path="url(#931bc041aa)"><g transform="matrix(1, 0, 0, 1, 600, 78)"><g clip-path="url(#579ff34e4b)"><g clip-path="url(#86881be0b9)"><path fill="#5e17eb" d="M 0.960938 0.898438 L 82.253906 0.898438 L 82.253906 653.136719 L 0.960938 653.136719 Z M 0.960938 0.898438 " fill-opacity="1" fill-rule="nonzero"/></g></g></g></g></svg>