<svg xmlns="http://www.w3.org/2000/svg" xmlns:xlink="http://www.w3.org/1999/xlink" width="500" zoomAndPan="magnify" viewBox="0 0 375 374.999991" height="500" preserveAspectRatio="xMidYMid meet" version="1.0"><defs><g/><clipPath id="01ed4ef1c7"><path d="M 56.328125 161.816406 L 321 161.816406 L 321 269.816406 L 56.328125 269.816406 Z M 56.328125 161.816406 " clip-rule="nonzero"/></clipPath><clipPath id="94e17efdd2"><path d="M 55.578125 212.066406 L 55.578125 218.976562 C 55.578125 247.144531 78.414062 269.976562 106.578125 269.976562 L 270.808594 269.976562 C 298.976562 269.976562 321.808594 247.144531 321.808594 218.976562 L 321.808594 212.066406 C 321.808594 183.898438 298.976562 161.066406 270.808594 161.066406 L 106.578125 161.066406 C 78.414062 161.066406 55.578125 183.898438 55.578125 212.066406 Z M 55.578125 212.066406 " clip-rule="nonzero"/></clipPath><clipPath id="f0a9a21a3a"><path d="M 107.480469 161.964844 L 269.910156 161.964844 C 298.074219 161.964844 320.910156 184.796875 320.910156 212.964844 L 320.910156 218.078125 C 320.910156 246.242188 298.074219 269.078125 269.910156 269.078125 L 107.480469 269.078125 C 79.3125 269.078125 56.480469 246.242188 56.480469 218.078125 L 56.480469 212.964844 C 56.480469 184.796875 79.3125 161.964844 107.480469 161.964844 Z M 107.480469 161.964844 " clip-rule="nonzero"/></clipPath><clipPath id="ea7d071c8d"><path d="M 71 178 L 147 178 L 147 254 L 71 254 Z M 71 178 " clip-rule="nonzero"/></clipPath><clipPath id="ea51fb64d5"><path d="M 55.578125 212.066406 L 55.578125 218.976562 C 55.578125 247.144531 78.414062 269.976562 106.578125 269.976562 L 270.808594 269.976562 C 298.976562 269.976562 321.808594 247.144531 321.808594 218.976562 L 321.808594 212.066406 C 321.808594 183.898438 298.976562 161.066406 270.808594 161.066406 L 106.578125 161.066406 C 78.414062 161.066406 55.578125 183.898438 55.578125 212.066406 Z M 55.578125 212.066406 " clip-rule="nonzero"/></clipPath><clipPath id="e75aac0718"><path d="M 107.480469 161.964844 L 269.910156 161.964844 C 298.074219 161.964844 320.910156 184.796875 320.910156 212.964844 L 320.910156 218.078125 C 320.910156 246.242188 298.074219 269.078125 269.910156 269.078125 L 107.480469 269.078125 C 79.3125 269.078125 56.480469 246.242188 56.480469 218.078125 L 56.480469 212.964844 C 56.480469 184.796875 79.3125 161.964844 107.480469 161.964844 Z M 107.480469 161.964844 " clip-rule="nonzero"/></clipPath><clipPath id="a046645994"><path d="M 55.578125 161.066406 L 321.824219 161.066406 L 321.824219 269.816406 L 55.578125 269.816406 Z M 55.578125 161.066406 " clip-rule="nonzero"/></clipPath><clipPath id="6185c82fa3"><path d="M 55.578125 212.066406 L 55.578125 218.976562 C 55.578125 247.144531 78.414062 269.976562 106.578125 269.976562 L 270.808594 269.976562 C 298.976562 269.976562 321.808594 247.144531 321.808594 218.976562 L 321.808594 212.066406 C 321.808594 183.898438 298.976562 161.066406 270.808594 161.066406 L 106.578125 161.066406 C 78.414062 161.066406 55.578125 183.898438 55.578125 212.066406 Z M 55.578125 212.066406 " clip-rule="nonzero"/></clipPath><clipPath id="92087ab875"><path d="M 55.578125 212.058594 L 55.578125 218.972656 C 55.578125 247.136719 78.410156 269.96875 106.578125 269.96875 L 270.804688 269.96875 C 298.972656 269.96875 321.804688 247.136719 321.804688 218.972656 L 321.804688 212.058594 C 321.804688 183.894531 298.972656 161.066406 270.804688 161.066406 L 106.578125 161.066406 C 78.410156 161.066406 55.578125 183.894531 55.578125 212.058594 Z M 55.578125 212.058594 " clip-rule="nonzero"/></clipPath><clipPath id="280db2dea3"><path d="M 84.632812 192.484375 L 134.132812 192.484375 L 134.132812 239.734375 L 84.632812 239.734375 Z M 84.632812 192.484375 " clip-rule="nonzero"/></clipPath><clipPath id="874ee359ac"><path d="M 150 187.871094 L 201.75 187.871094 L 201.75 244.871094 L 150 244.871094 Z M 150 187.871094 " clip-rule="nonzero"/></clipPath><clipPath id="75a8debeee"><path d="M 258.46875 187.871094 L 310.21875 187.871094 L 310.21875 244.871094 L 258.46875 244.871094 Z M 258.46875 187.871094 " clip-rule="nonzero"/></clipPath><clipPath id="e17d6ae868"><path d="M 205 188 L 258 188 L 258 245 L 205 245 Z M 205 188 " clip-rule="nonzero"/></clipPath><clipPath id="06074c0d43"><path d="M 219.710938 179.039062 L 270.777344 202.621094 L 247.199219 253.691406 L 196.128906 230.109375 Z M 219.710938 179.039062 " clip-rule="nonzero"/></clipPath><clipPath id="874817b11a"><path d="M 219.710938 179.039062 L 270.777344 202.621094 L 247.199219 253.691406 L 196.128906 230.109375 Z M 219.710938 179.039062 " clip-rule="nonzero"/></clipPath><clipPath id="66fbdbf6cd"><path d="M 148 55.878906 L 263.695312 55.878906 L 263.695312 155.628906 L 148 155.628906 Z M 148 55.878906 " clip-rule="nonzero"/></clipPath><clipPath id="1c78526e94"><path d="M 113.695312 74 L 198 74 L 198 155.628906 L 113.695312 155.628906 Z M 113.695312 74 " clip-rule="nonzero"/></clipPath></defs><g clip-path="url(#01ed4ef1c7)"><g clip-path="url(#94e17efdd2)"><g clip-path="url(#f0a9a21a3a)"><path fill="#030e4d" d="M 267.085938 269.96875 L 110.421875 269.96875 C 80.289062 269.96875 55.910156 245.585938 55.910156 215.578125 C 55.910156 185.445312 80.289062 161.066406 110.421875 161.066406 L 267.085938 161.066406 C 297.21875 161.066406 321.601562 185.445312 321.601562 215.578125 C 321.476562 245.585938 297.09375 269.96875 267.085938 269.96875 Z M 267.085938 269.96875 " fill-opacity="1" fill-rule="nonzero"/></g></g></g><g clip-path="url(#ea7d071c8d)"><g clip-path="url(#ea51fb64d5)"><g clip-path="url(#e75aac0718)"><path fill="#f2a021" d="M 146.804688 215.578125 C 146.804688 216.808594 146.746094 218.03125 146.625 219.253906 C 146.503906 220.476562 146.324219 221.691406 146.085938 222.894531 C 145.847656 224.101562 145.546875 225.292969 145.191406 226.46875 C 144.835938 227.644531 144.421875 228.796875 143.953125 229.933594 C 143.480469 231.066406 142.957031 232.175781 142.378906 233.261719 C 141.796875 234.34375 141.167969 235.394531 140.484375 236.417969 C 139.800781 237.4375 139.070312 238.425781 138.292969 239.375 C 137.511719 240.324219 136.6875 241.234375 135.820312 242.101562 C 134.953125 242.96875 134.042969 243.792969 133.09375 244.574219 C 132.144531 245.351562 131.15625 246.085938 130.136719 246.765625 C 129.113281 247.449219 128.0625 248.078125 126.980469 248.660156 C 125.894531 249.238281 124.785156 249.761719 123.652344 250.234375 C 122.515625 250.703125 121.359375 251.117188 120.1875 251.472656 C 119.011719 251.828125 117.820312 252.128906 116.613281 252.367188 C 115.410156 252.605469 114.195312 252.785156 112.972656 252.90625 C 111.75 253.027344 110.527344 253.089844 109.296875 253.089844 C 108.070312 253.089844 106.84375 253.027344 105.621094 252.90625 C 104.398438 252.785156 103.183594 252.605469 101.980469 252.367188 C 100.773438 252.128906 99.585938 251.828125 98.410156 251.472656 C 97.234375 251.117188 96.078125 250.703125 94.941406 250.234375 C 93.808594 249.761719 92.699219 249.238281 91.617188 248.660156 C 90.53125 248.078125 89.480469 247.449219 88.457031 246.765625 C 87.4375 246.085938 86.449219 245.351562 85.5 244.574219 C 84.550781 243.792969 83.644531 242.96875 82.773438 242.101562 C 81.90625 241.234375 81.082031 240.324219 80.300781 239.375 C 79.523438 238.425781 78.792969 237.4375 78.109375 236.417969 C 77.425781 235.394531 76.796875 234.34375 76.21875 233.261719 C 75.636719 232.175781 75.113281 231.066406 74.644531 229.933594 C 74.171875 228.796875 73.757812 227.644531 73.402344 226.46875 C 73.046875 225.292969 72.75 224.101562 72.507812 222.894531 C 72.269531 221.691406 72.089844 220.476562 71.96875 219.253906 C 71.847656 218.03125 71.789062 216.808594 71.789062 215.578125 C 71.789062 214.351562 71.847656 213.125 71.96875 211.902344 C 72.089844 210.679688 72.269531 209.464844 72.507812 208.261719 C 72.75 207.054688 73.046875 205.867188 73.402344 204.691406 C 73.757812 203.515625 74.171875 202.359375 74.644531 201.222656 C 75.113281 200.089844 75.636719 198.980469 76.21875 197.898438 C 76.796875 196.8125 77.425781 195.761719 78.109375 194.738281 C 78.792969 193.71875 79.523438 192.734375 80.300781 191.78125 C 81.082031 190.832031 81.90625 189.925781 82.773438 189.054688 C 83.644531 188.1875 84.550781 187.363281 85.5 186.582031 C 86.449219 185.804688 87.4375 185.074219 88.457031 184.390625 C 89.480469 183.707031 90.53125 183.078125 91.617188 182.5 C 92.699219 181.917969 93.808594 181.394531 94.941406 180.925781 C 96.078125 180.453125 97.234375 180.039062 98.410156 179.683594 C 99.585938 179.328125 100.773438 179.03125 101.980469 178.789062 C 103.183594 178.550781 104.398438 178.371094 105.621094 178.25 C 106.84375 178.128906 108.070312 178.070312 109.296875 178.070312 C 110.527344 178.070312 111.75 178.128906 112.972656 178.25 C 114.195312 178.371094 115.410156 178.550781 116.613281 178.789062 C 117.820312 179.03125 119.011719 179.328125 120.1875 179.683594 C 121.359375 180.039062 122.515625 180.453125 123.652344 180.925781 C 124.785156 181.394531 125.894531 181.917969 126.980469 182.5 C 128.0625 183.078125 129.113281 183.707031 130.136719 184.390625 C 131.15625 185.074219 132.144531 185.804688 133.09375 186.582031 C 134.042969 187.363281 134.953125 188.1875 135.820312 189.054688 C 136.6875 189.925781 137.511719 190.832031 138.292969 191.78125 C 139.070312 192.734375 139.800781 193.71875 140.484375 194.738281 C 141.167969 195.761719 141.796875 196.8125 142.378906 197.898438 C 142.957031 198.980469 143.480469 200.089844 143.953125 201.222656 C 144.421875 202.359375 144.835938 203.515625 145.191406 204.691406 C 145.546875 205.867188 145.847656 207.054688 146.085938 208.261719 C 146.324219 209.464844 146.503906 210.679688 146.625 211.902344 C 146.746094 213.125 146.804688 214.351562 146.804688 215.578125 Z M 146.804688 215.578125 " fill-opacity="1" fill-rule="nonzero"/></g></g></g><g clip-path="url(#a046645994)"><g clip-path="url(#6185c82fa3)"><g clip-path="url(#92087ab875)"><path stroke-linecap="butt" transform="matrix(0.75, 0, 0, 0.75, 55.578846, 161.064921)" fill="none" stroke-linejoin="miter" d="M -0.000960867 67.991569 L -0.000960867 77.210319 C -0.000960867 114.762405 30.441749 145.205115 67.999044 145.205115 L 286.967808 145.205115 C 324.525102 145.205115 354.967812 114.762405 354.967812 77.210319 L 354.967812 67.991569 C 354.967812 30.439483 324.525102 0.00198084 286.967808 0.00198084 L 67.999044 0.00198084 C 30.441749 0.00198084 -0.000960867 30.439483 -0.000960867 67.991569 Z M -0.000960867 67.991569 " stroke="#f2a021" stroke-width="10" stroke-opacity="1" stroke-miterlimit="4"/></g></g></g><g clip-path="url(#280db2dea3)"><path fill="#030e4d" d="M 133.289062 192.484375 L 123.558594 192.484375 C 123.128906 192.484375 122.695312 192.699219 122.585938 193.132812 L 109.507812 224.808594 L 96.425781 193.132812 C 96.316406 192.699219 95.886719 192.484375 95.453125 192.484375 L 85.722656 192.484375 C 85.074219 192.484375 84.640625 192.914062 84.640625 193.566406 L 84.640625 238.96875 C 84.640625 239.617188 85.074219 240.050781 85.722656 240.050781 L 93.289062 240.050781 C 93.9375 240.050781 94.371094 239.617188 94.371094 238.96875 L 94.371094 209.78125 L 95.128906 209.78125 L 106.046875 236.15625 C 106.261719 236.589844 106.585938 236.808594 107.019531 236.808594 L 112.101562 236.808594 C 112.535156 236.808594 112.964844 236.589844 113.074219 236.15625 L 123.882812 209.78125 L 124.640625 209.78125 L 124.640625 238.96875 C 124.640625 239.617188 125.074219 240.050781 125.722656 240.050781 L 133.289062 240.050781 C 133.9375 240.050781 134.371094 239.617188 134.371094 238.96875 L 134.371094 193.566406 C 134.371094 192.914062 133.9375 192.484375 133.289062 192.484375 Z M 133.289062 192.484375 " fill-opacity="1" fill-rule="nonzero"/></g><g clip-path="url(#874ee359ac)"><path fill="#f2a021" d="M 176.007812 187.871094 C 160.222656 187.871094 150.019531 199.011719 150.019531 216.25 C 150.019531 233.78125 159.976562 244.671875 176.007812 244.671875 C 191.96875 244.671875 201.882812 233.78125 201.882812 216.25 C 201.882812 198.746094 191.96875 187.871094 176.007812 187.871094 Z M 176.003906 234.792969 C 166.765625 234.792969 161.132812 227.539062 161.132812 216.253906 C 161.132812 204.933594 166.90625 197.75 176.003906 197.75 C 185.070312 197.75 190.769531 204.933594 190.769531 216.253906 C 190.769531 227.539062 185.105469 234.792969 176.003906 234.792969 Z M 176.003906 234.792969 " fill-opacity="1" fill-rule="nonzero"/></g><g clip-path="url(#75a8debeee)"><path fill="#f2a021" d="M 284.472656 187.871094 C 268.6875 187.871094 258.488281 199.011719 258.488281 216.25 C 258.488281 233.78125 268.445312 244.671875 284.472656 244.671875 C 300.433594 244.671875 310.347656 233.78125 310.347656 216.25 C 310.347656 198.746094 300.433594 187.871094 284.472656 187.871094 Z M 284.472656 234.792969 C 275.230469 234.792969 269.601562 227.539062 269.601562 216.253906 C 269.601562 204.933594 275.371094 197.75 284.472656 197.75 C 293.535156 197.75 299.234375 204.933594 299.234375 216.253906 C 299.234375 227.539062 293.570312 234.792969 284.472656 234.792969 Z M 284.472656 234.792969 " fill-opacity="1" fill-rule="nonzero"/></g><g clip-path="url(#e17d6ae868)"><g clip-path="url(#06074c0d43)"><g clip-path="url(#874817b11a)"><path fill="#ffffff" d="M 257.691406 230.777344 C 250.335938 243 234.09375 248.210938 220.566406 241.15625 C 207.003906 234.082031 201.320312 216.929688 208.695312 203.097656 C 216.257812 188.910156 232.285156 185.683594 242.5 189.5625 C 234.863281 191.5625 229.515625 196.152344 226.65625 203.445312 C 224.480469 209.003906 224.574219 214.628906 226.859375 220.160156 C 228.457031 224.027344 230.980469 227.195312 234.398438 229.625 C 237.84375 232.074219 241.691406 233.375 245.902344 233.539062 C 250.070312 233.699219 254.011719 232.800781 257.691406 230.777344 Z M 257.691406 230.777344 " fill-opacity="1" fill-rule="nonzero"/></g></g></g><g clip-path="url(#66fbdbf6cd)"><path fill="#f2a021" d="M 215.898438 84.308594 C 204.484375 106.71875 193.285156 128.703125 181.84375 151.15625 C 176.1875 140.082031 170.726562 129.390625 165.132812 118.433594 C 159.546875 123.667969 154.160156 128.707031 148.78125 133.75 C 148.644531 133.636719 148.503906 133.523438 148.367188 133.414062 C 154.464844 123.753906 160.558594 114.097656 166.886719 104.074219 C 171.882812 111.890625 176.710938 119.441406 181.84375 127.46875 C 193.464844 103.492188 204.910156 79.875 216.539062 55.878906 C 232.308594 89.261719 247.921875 122.304688 263.648438 155.601562 C 262.726562 155.683594 262.132812 155.777344 261.53125 155.777344 C 253.050781 155.789062 244.566406 155.75 236.085938 155.816406 C 234.546875 155.828125 233.75 155.269531 233.039062 153.886719 C 227.644531 143.40625 222.167969 132.972656 216.707031 122.527344 C 216.386719 121.914062 216.015625 121.328125 215.515625 120.46875 C 207.371094 131.535156 199.367188 142.417969 191.363281 153.296875 C 191.222656 153.207031 191.078125 153.121094 190.9375 153.03125 C 199.199219 136.0625 207.457031 119.089844 215.890625 101.761719 C 223.699219 113.542969 231.339844 125.078125 238.984375 136.609375 C 239.128906 136.53125 239.277344 136.453125 239.417969 136.375 C 231.640625 119.15625 223.863281 101.933594 215.898438 84.308594 Z M 215.898438 84.308594 " fill-opacity="1" fill-rule="nonzero"/></g><g clip-path="url(#1c78526e94)"><path fill="#f2a021" d="M 113.742188 155.375 C 131.445312 128.320312 148.867188 101.707031 166.546875 74.695312 C 171.710938 84.496094 176.738281 94.03125 181.96875 103.960938 C 187.179688 97.402344 192.175781 91.113281 197.167969 84.824219 C 197.265625 84.886719 197.359375 84.949219 197.453125 85.007812 C 192.308594 96.164062 187.15625 107.3125 181.824219 118.871094 C 176.726562 111.300781 171.800781 103.988281 166.683594 96.390625 C 166.042969 97.25 165.519531 97.851562 165.097656 98.519531 C 153.820312 116.554688 142.511719 134.566406 131.320312 152.65625 C 130.027344 154.746094 128.710938 155.761719 126.199219 155.566406 C 122.953125 155.308594 119.671875 155.511719 116.40625 155.5 C 115.667969 155.5 114.925781 155.433594 113.742188 155.375 Z M 113.742188 155.375 " fill-opacity="1" fill-rule="nonzero"/></g><g fill="#f2a021" fill-opacity="1"><g transform="translate(124.026236, 289.857607)"><g><path d="M 14.921875 -1.671875 C 15.054688 -1.671875 15.125 -1.570312 15.125 -1.375 C 15.125 -1.1875 15.085938 -1.023438 15.015625 -0.890625 C 14.953125 -0.765625 14.875 -0.648438 14.78125 -0.546875 C 14.6875 -0.441406 14.566406 -0.34375 14.421875 -0.25 C 14.078125 -0.03125 13.71875 0.078125 13.34375 0.078125 C 12.976562 0.078125 12.6875 0.0351562 12.46875 -0.046875 C 12.25 -0.140625 12.054688 -0.28125 11.890625 -0.46875 C 11.546875 -0.84375 11.375 -1.367188 11.375 -2.046875 C 11.375 -2.765625 11.507812 -3.644531 11.78125 -4.6875 C 12.0625 -5.726562 12.332031 -6.613281 12.59375 -7.34375 C 12.851562 -8.082031 13.117188 -8.789062 13.390625 -9.46875 L 14.140625 -11.359375 C 13.316406 -10.628906 12.28125 -9.082031 11.03125 -6.71875 L 9.015625 -2.921875 C 7.941406 -0.921875 7.175781 0.078125 6.71875 0.078125 C 6.269531 0.078125 5.960938 -0.113281 5.796875 -0.5 C 5.640625 -0.863281 5.5625 -1.488281 5.5625 -2.375 C 5.5625 -3.269531 5.632812 -4.125 5.78125 -4.9375 C 5.925781 -5.757812 6.101562 -6.5625 6.3125 -7.34375 C 6.6875 -8.71875 7.175781 -10.082031 7.78125 -11.4375 C 7.195312 -11.113281 6.550781 -10.382812 5.84375 -9.25 C 5.300781 -8.351562 4.921875 -7.695312 4.703125 -7.28125 L 2.5625 -3.34375 C 1.664062 -1.71875 0.945312 -0.710938 0.40625 -0.328125 C 0.0078125 -0.0546875 -0.410156 0.078125 -0.859375 0.078125 C -1.242188 0.078125 -1.523438 -0.0390625 -1.703125 -0.28125 C -1.765625 -0.382812 -1.796875 -0.476562 -1.796875 -0.5625 C -1.796875 -0.644531 -1.773438 -0.691406 -1.734375 -0.703125 C -1.390625 -0.796875 -1.144531 -0.894531 -1 -1 C -0.851562 -1.101562 -0.710938 -1.207031 -0.578125 -1.3125 C -0.441406 -1.425781 -0.242188 -1.65625 0.015625 -2 C 0.285156 -2.351562 0.578125 -2.773438 0.890625 -3.265625 C 1.203125 -3.765625 1.523438 -4.320312 1.859375 -4.9375 L 2.90625 -6.875 C 3.882812 -8.757812 4.90625 -10.269531 5.96875 -11.40625 C 6.34375 -11.8125 6.710938 -12.125 7.078125 -12.34375 C 7.441406 -12.601562 7.863281 -12.773438 8.34375 -12.859375 C 8.476562 -12.890625 8.601562 -12.90625 8.71875 -12.90625 C 8.832031 -12.90625 8.957031 -12.890625 9.09375 -12.859375 C 9.238281 -12.828125 9.363281 -12.773438 9.46875 -12.703125 C 9.71875 -12.535156 9.789062 -12.3125 9.6875 -12.03125 C 9.644531 -11.863281 9.5625 -11.617188 9.4375 -11.296875 L 8.984375 -10.109375 C 7.929688 -7.210938 7.359375 -4.582031 7.265625 -2.21875 C 7.554688 -2.71875 7.851562 -3.269531 8.15625 -3.875 L 9.09375 -5.71875 L 10.078125 -7.609375 C 11.597656 -10.429688 13.007812 -12.046875 14.3125 -12.453125 C 14.582031 -12.535156 14.8125 -12.578125 15 -12.578125 C 15.1875 -12.578125 15.332031 -12.550781 15.4375 -12.5 C 15.539062 -12.457031 15.632812 -12.398438 15.71875 -12.328125 C 15.90625 -12.148438 15.96875 -11.96875 15.90625 -11.78125 C 15.851562 -11.601562 15.773438 -11.367188 15.671875 -11.078125 L 14.46875 -7.578125 L 14.03125 -6.1875 C 13.5625 -4.59375 13.28125 -3.375 13.1875 -2.53125 C 13.15625 -2.164062 13.195312 -1.878906 13.3125 -1.671875 C 13.425781 -1.472656 13.582031 -1.375 13.78125 -1.375 C 13.976562 -1.375 14.132812 -1.390625 14.25 -1.421875 C 14.363281 -1.453125 14.460938 -1.488281 14.546875 -1.53125 L 14.765625 -1.625 C 14.816406 -1.65625 14.867188 -1.671875 14.921875 -1.671875 Z M 14.921875 -1.671875 "/></g></g></g><g fill="#f2a021" fill-opacity="1"><g transform="translate(139.856848, 289.857607)"><g><path d="M 7 -2.203125 C 7 -1.691406 7.179688 -1.4375 7.546875 -1.4375 C 7.796875 -1.4375 8 -1.472656 8.15625 -1.546875 C 8.320312 -1.628906 8.429688 -1.671875 8.484375 -1.671875 C 8.597656 -1.671875 8.65625 -1.613281 8.65625 -1.5 C 8.65625 -1.019531 8.410156 -0.609375 7.921875 -0.265625 C 7.390625 0.0976562 6.851562 0.1875 6.3125 0 C 5.945312 -0.125 5.679688 -0.398438 5.515625 -0.828125 C 5.429688 -1.035156 5.390625 -1.226562 5.390625 -1.40625 C 5.390625 -1.695312 5.414062 -2.003906 5.46875 -2.328125 C 4.957031 -1.273438 4.316406 -0.550781 3.546875 -0.15625 C 3.242188 0 2.921875 0.078125 2.578125 0.078125 C 2.234375 0.078125 1.9375 0.0078125 1.6875 -0.125 C 1.4375 -0.269531 1.222656 -0.46875 1.046875 -0.71875 C 0.679688 -1.238281 0.515625 -1.890625 0.546875 -2.671875 C 0.585938 -3.660156 0.878906 -4.625 1.421875 -5.5625 C 1.929688 -6.445312 2.566406 -7.171875 3.328125 -7.734375 C 4.097656 -8.304688 4.816406 -8.59375 5.484375 -8.59375 C 6.160156 -8.59375 6.703125 -8.285156 7.109375 -7.671875 C 7.492188 -8.285156 7.832031 -8.59375 8.125 -8.59375 C 8.4375 -8.59375 8.675781 -8.535156 8.84375 -8.421875 C 9.144531 -8.191406 9.25 -8 9.15625 -7.84375 C 7.769531 -4.988281 7.054688 -3.21875 7.015625 -2.53125 C 7.003906 -2.425781 7 -2.316406 7 -2.203125 Z M 2.390625 -2.171875 C 2.390625 -1.503906 2.601562 -1.171875 3.03125 -1.171875 C 3.363281 -1.171875 3.765625 -1.453125 4.234375 -2.015625 C 4.929688 -2.828125 5.550781 -3.921875 6.09375 -5.296875 C 6.257812 -5.722656 6.398438 -6.15625 6.515625 -6.59375 C 6.492188 -6.96875 6.335938 -7.242188 6.046875 -7.421875 C 5.953125 -7.484375 5.804688 -7.515625 5.609375 -7.515625 C 5.410156 -7.515625 5.175781 -7.441406 4.90625 -7.296875 C 4.644531 -7.148438 4.390625 -6.953125 4.140625 -6.703125 C 3.898438 -6.453125 3.671875 -6.15625 3.453125 -5.8125 C 3.242188 -5.476562 3.0625 -5.113281 2.90625 -4.71875 C 2.5625 -3.863281 2.390625 -3.015625 2.390625 -2.171875 Z M 2.390625 -2.171875 "/></g></g></g><g fill="#f2a021" fill-opacity="1"><g transform="translate(149.058183, 289.857607)"><g><path d="M 6.09375 0.078125 C 4.832031 0.078125 3.832031 -1.113281 3.09375 -3.5 C 2.789062 -2.957031 2.546875 -2.46875 2.359375 -2.03125 L 1.859375 -0.890625 C 1.710938 -0.585938 1.578125 -0.347656 1.453125 -0.171875 C 1.328125 -0.00390625 1.1875 0.078125 1.03125 0.078125 C 0.882812 0.078125 0.742188 0.0507812 0.609375 0 C 0.484375 -0.0507812 0.375 -0.117188 0.28125 -0.203125 C 0.0820312 -0.378906 -0.015625 -0.570312 -0.015625 -0.78125 C -0.015625 -0.863281 0.046875 -1.023438 0.171875 -1.265625 L 0.5 -1.9375 C 1.53125 -4.070312 2.46875 -6.773438 3.3125 -10.046875 C 3.625 -11.253906 3.847656 -12.335938 3.984375 -13.296875 C 4.046875 -13.765625 4.273438 -14 4.671875 -14 C 4.898438 -14 5.09375 -13.9375 5.25 -13.8125 C 5.539062 -13.570312 5.679688 -13.316406 5.671875 -13.046875 C 5.660156 -12.773438 5.625 -12.46875 5.5625 -12.125 C 5.5 -11.78125 5.414062 -11.40625 5.3125 -11 C 5.207031 -10.59375 5.085938 -10.164062 4.953125 -9.71875 C 4.597656 -8.5625 4.332031 -7.738281 4.15625 -7.25 L 3.375 -5.09375 C 3.269531 -4.84375 3.191406 -4.660156 3.140625 -4.546875 C 4.421875 -5.046875 5.382812 -5.617188 6.03125 -6.265625 C 6.414062 -6.648438 6.609375 -7.015625 6.609375 -7.359375 C 6.609375 -7.523438 6.550781 -7.644531 6.4375 -7.71875 C 6.320312 -7.800781 6.242188 -7.863281 6.203125 -7.90625 C 6.160156 -7.945312 6.15625 -8.019531 6.1875 -8.125 C 6.226562 -8.238281 6.332031 -8.34375 6.5 -8.4375 C 6.675781 -8.539062 6.882812 -8.59375 7.125 -8.59375 C 7.375 -8.59375 7.578125 -8.566406 7.734375 -8.515625 C 7.898438 -8.472656 8.046875 -8.40625 8.171875 -8.3125 C 8.441406 -8.125 8.578125 -7.851562 8.578125 -7.5 C 8.578125 -7.144531 8.5 -6.816406 8.34375 -6.515625 C 8.195312 -6.222656 7.96875 -5.9375 7.65625 -5.65625 C 7.03125 -5.125 6.03125 -4.613281 4.65625 -4.125 C 4.820312 -3.382812 5.132812 -2.734375 5.59375 -2.171875 C 6.03125 -1.640625 6.429688 -1.375 6.796875 -1.375 C 6.992188 -1.375 7.160156 -1.410156 7.296875 -1.484375 L 7.59375 -1.625 C 7.65625 -1.65625 7.710938 -1.671875 7.765625 -1.671875 C 7.910156 -1.671875 7.984375 -1.585938 7.984375 -1.421875 C 7.984375 -1.285156 7.957031 -1.160156 7.90625 -1.046875 C 7.851562 -0.941406 7.78125 -0.828125 7.6875 -0.703125 C 7.59375 -0.578125 7.476562 -0.457031 7.34375 -0.34375 C 6.976562 -0.0625 6.5625 0.078125 6.09375 0.078125 Z M 6.09375 0.078125 "/></g></g></g><g fill="#f2a021" fill-opacity="1"><g transform="translate(157.512791, 289.857607)"><g><path d="M 0.671875 -2.90625 C 0.703125 -3.382812 0.785156 -3.84375 0.921875 -4.28125 C 1.054688 -4.726562 1.238281 -5.15625 1.46875 -5.5625 C 1.707031 -5.976562 1.984375 -6.367188 2.296875 -6.734375 C 2.609375 -7.097656 2.945312 -7.421875 3.3125 -7.703125 C 4.101562 -8.296875 4.898438 -8.59375 5.703125 -8.59375 C 6.648438 -8.59375 7.28125 -8.203125 7.59375 -7.421875 C 7.707031 -7.148438 7.757812 -6.832031 7.75 -6.46875 C 7.75 -6.113281 7.679688 -5.78125 7.546875 -5.46875 C 7.421875 -5.164062 7.238281 -4.890625 7 -4.640625 C 6.757812 -4.390625 6.476562 -4.160156 6.15625 -3.953125 C 5.832031 -3.753906 5.484375 -3.585938 5.109375 -3.453125 C 4.316406 -3.171875 3.472656 -3.023438 2.578125 -3.015625 C 2.554688 -2.941406 2.539062 -2.828125 2.53125 -2.671875 C 2.53125 -2.515625 2.546875 -2.34375 2.578125 -2.15625 C 2.617188 -1.96875 2.6875 -1.796875 2.78125 -1.640625 C 2.976562 -1.304688 3.269531 -1.140625 3.65625 -1.140625 C 4.289062 -1.140625 4.914062 -1.328125 5.53125 -1.703125 C 5.738281 -1.835938 5.910156 -1.972656 6.046875 -2.109375 C 6.179688 -2.242188 6.300781 -2.3125 6.40625 -2.3125 C 6.507812 -2.3125 6.597656 -2.25 6.671875 -2.125 C 6.742188 -2.007812 6.78125 -1.878906 6.78125 -1.734375 C 6.78125 -1.429688 6.695312 -1.175781 6.53125 -0.96875 C 5.832031 -0.269531 4.796875 0.078125 3.421875 0.078125 C 2.609375 0.078125 1.953125 -0.160156 1.453125 -0.640625 C 0.898438 -1.203125 0.640625 -1.957031 0.671875 -2.90625 Z M 5.53125 -7.484375 C 4.945312 -7.484375 4.382812 -7.085938 3.84375 -6.296875 C 3.394531 -5.609375 3.03125 -4.796875 2.75 -3.859375 C 3.675781 -3.953125 4.476562 -4.316406 5.15625 -4.953125 C 5.78125 -5.546875 6.09375 -6.113281 6.09375 -6.65625 C 6.09375 -7.207031 5.90625 -7.484375 5.53125 -7.484375 Z M 5.53125 -7.484375 "/></g></g></g><g fill="#f2a021" fill-opacity="1"><g transform="translate(165.52766, 289.857607)"><g/></g></g><g fill="#f2a021" fill-opacity="1"><g transform="translate(170.746452, 289.857607)"><g><path d="M 0.578125 -0.8125 C 0.515625 -0.988281 0.484375 -1.191406 0.484375 -1.421875 C 0.484375 -1.660156 0.519531 -1.925781 0.59375 -2.21875 C 0.675781 -2.507812 0.78125 -2.8125 0.90625 -3.125 C 1.039062 -3.445312 1.179688 -3.769531 1.328125 -4.09375 L 1.78125 -5.09375 C 2.351562 -6.375 2.566406 -7.132812 2.421875 -7.375 C 2.347656 -7.476562 2.222656 -7.582031 2.046875 -7.6875 C 1.972656 -7.726562 1.9375 -7.796875 1.9375 -7.890625 C 1.9375 -7.984375 1.976562 -8.070312 2.0625 -8.15625 C 2.144531 -8.25 2.25 -8.332031 2.375 -8.40625 C 2.644531 -8.53125 2.914062 -8.59375 3.1875 -8.59375 C 3.457031 -8.59375 3.660156 -8.5625 3.796875 -8.5 C 3.941406 -8.445312 4.0625 -8.375 4.15625 -8.28125 C 4.332031 -8.101562 4.421875 -7.898438 4.421875 -7.671875 C 4.421875 -7.453125 4.382812 -7.207031 4.3125 -6.9375 C 4.238281 -6.664062 4.144531 -6.367188 4.03125 -6.046875 C 3.914062 -5.722656 3.789062 -5.390625 3.65625 -5.046875 C 3.269531 -4.148438 3.007812 -3.554688 2.875 -3.265625 L 2.578125 -2.625 C 2.398438 -2.25 2.3125 -1.984375 2.3125 -1.828125 C 2.3125 -1.671875 2.335938 -1.5625 2.390625 -1.5 C 2.441406 -1.4375 2.53125 -1.40625 2.65625 -1.40625 C 2.789062 -1.40625 2.9375 -1.453125 3.09375 -1.546875 C 3.25 -1.648438 3.414062 -1.785156 3.59375 -1.953125 C 3.78125 -2.117188 3.972656 -2.3125 4.171875 -2.53125 C 4.367188 -2.75 4.5625 -2.976562 4.75 -3.21875 C 5.238281 -3.820312 5.601562 -4.34375 5.84375 -4.78125 C 7.039062 -6.976562 7.675781 -8.128906 7.75 -8.234375 C 7.925781 -8.472656 8.109375 -8.59375 8.296875 -8.59375 C 8.484375 -8.59375 8.644531 -8.570312 8.78125 -8.53125 C 8.914062 -8.488281 9.035156 -8.425781 9.140625 -8.34375 C 9.359375 -8.1875 9.425781 -8.007812 9.34375 -7.8125 C 9.257812 -7.613281 9.15625 -7.335938 9.03125 -6.984375 C 7.976562 -3.941406 7.296875 -2.039062 6.984375 -1.28125 C 6.671875 -0.53125 6.394531 0.0703125 6.15625 0.53125 C 5.925781 0.988281 5.65625 1.445312 5.34375 1.90625 C 5.03125 2.375 4.695312 2.796875 4.34375 3.171875 C 3.539062 4.035156 2.785156 4.5 2.078125 4.5625 C 1.804688 4.582031 1.585938 4.546875 1.421875 4.453125 C 1.148438 4.285156 1.015625 4.125 1.015625 3.96875 C 1.015625 3.820312 1.140625 3.71875 1.390625 3.65625 C 1.640625 3.601562 1.898438 3.488281 2.171875 3.3125 C 2.441406 3.144531 2.703125 2.941406 2.953125 2.703125 C 3.679688 2.003906 4.25 1.25 4.65625 0.4375 C 4.988281 -0.28125 5.265625 -0.960938 5.484375 -1.609375 L 6.125 -3.59375 C 5.96875 -3.394531 5.789062 -3.164062 5.59375 -2.90625 L 5 -2.109375 C 4.476562 -1.453125 4.046875 -0.984375 3.703125 -0.703125 C 3.046875 -0.179688 2.460938 0.078125 1.953125 0.078125 C 1.265625 0.078125 0.804688 -0.21875 0.578125 -0.8125 Z M 0.578125 -0.8125 "/></g></g></g><g fill="#f2a021" fill-opacity="1"><g transform="translate(180.088836, 289.857607)"><g><path d="M 1.375 -0.5625 C 1.144531 -0.78125 0.960938 -1.0625 0.828125 -1.40625 C 0.691406 -1.75 0.617188 -2.148438 0.609375 -2.609375 C 0.609375 -3.078125 0.664062 -3.546875 0.78125 -4.015625 C 0.90625 -4.492188 1.078125 -4.953125 1.296875 -5.390625 C 1.515625 -5.835938 1.773438 -6.253906 2.078125 -6.640625 C 2.390625 -7.035156 2.734375 -7.375 3.109375 -7.65625 C 3.910156 -8.28125 4.75 -8.59375 5.625 -8.59375 C 6.757812 -8.59375 7.53125 -8.09375 7.9375 -7.09375 C 8.21875 -6.363281 8.234375 -5.484375 7.984375 -4.453125 C 7.753906 -3.503906 7.328125 -2.632812 6.703125 -1.84375 C 6.085938 -1.0625 5.363281 -0.503906 4.53125 -0.171875 C 4.113281 -0.00390625 3.703125 0.078125 3.296875 0.078125 C 2.890625 0.078125 2.523438 0.0234375 2.203125 -0.078125 C 1.878906 -0.179688 1.601562 -0.34375 1.375 -0.5625 Z M 2.96875 -4.578125 C 2.800781 -4.171875 2.664062 -3.753906 2.5625 -3.328125 C 2.46875 -2.898438 2.421875 -2.492188 2.421875 -2.109375 C 2.429688 -1.722656 2.492188 -1.421875 2.609375 -1.203125 C 2.722656 -0.984375 2.90625 -0.875 3.15625 -0.875 C 3.414062 -0.875 3.664062 -0.957031 3.90625 -1.125 C 4.15625 -1.300781 4.394531 -1.535156 4.625 -1.828125 C 4.863281 -2.117188 5.082031 -2.453125 5.28125 -2.828125 C 5.488281 -3.203125 5.671875 -3.59375 5.828125 -4 C 6.160156 -4.894531 6.320312 -5.6875 6.3125 -6.375 C 6.3125 -6.976562 6.1875 -7.363281 5.9375 -7.53125 C 5.84375 -7.601562 5.703125 -7.640625 5.515625 -7.640625 C 5.335938 -7.640625 5.132812 -7.554688 4.90625 -7.390625 C 4.675781 -7.222656 4.441406 -7 4.203125 -6.71875 C 3.972656 -6.445312 3.75 -6.125 3.53125 -5.75 C 3.320312 -5.382812 3.132812 -4.992188 2.96875 -4.578125 Z M 2.96875 -4.578125 "/></g></g></g><g fill="#f2a021" fill-opacity="1"><g transform="translate(188.825541, 289.857607)"><g><path d="M 8.34375 -1.640625 C 8.46875 -1.640625 8.53125 -1.570312 8.53125 -1.4375 C 8.53125 -0.957031 8.289062 -0.554688 7.8125 -0.234375 C 7.5 -0.0234375 7.125 0.078125 6.6875 0.078125 C 6.332031 0.078125 6.0625 -0.00390625 5.875 -0.171875 C 5.539062 -0.460938 5.375 -0.828125 5.375 -1.265625 C 5.375 -1.804688 5.601562 -2.644531 6.0625 -3.78125 C 5.207031 -2.625 4.609375 -1.851562 4.265625 -1.46875 C 3.921875 -1.09375 3.625 -0.800781 3.375 -0.59375 C 2.820312 -0.144531 2.320312 0.078125 1.875 0.078125 C 1.1875 0.078125 0.726562 -0.21875 0.5 -0.8125 C 0.4375 -0.988281 0.40625 -1.191406 0.40625 -1.421875 C 0.40625 -1.660156 0.441406 -1.925781 0.515625 -2.21875 C 0.597656 -2.507812 0.703125 -2.8125 0.828125 -3.125 C 0.953125 -3.445312 1.09375 -3.769531 1.25 -4.09375 L 1.6875 -5.09375 C 2.269531 -6.375 2.484375 -7.132812 2.328125 -7.375 C 2.265625 -7.476562 2.140625 -7.582031 1.953125 -7.6875 C 1.890625 -7.726562 1.859375 -7.796875 1.859375 -7.890625 C 1.859375 -7.984375 1.894531 -8.070312 1.96875 -8.15625 C 2.050781 -8.25 2.160156 -8.332031 2.296875 -8.40625 C 2.566406 -8.53125 2.835938 -8.59375 3.109375 -8.59375 C 3.378906 -8.59375 3.582031 -8.5625 3.71875 -8.5 C 3.863281 -8.445312 3.976562 -8.375 4.0625 -8.28125 C 4.25 -8.101562 4.34375 -7.898438 4.34375 -7.671875 C 4.34375 -7.453125 4.304688 -7.207031 4.234375 -6.9375 C 4.160156 -6.664062 4.066406 -6.367188 3.953125 -6.046875 C 3.835938 -5.722656 3.707031 -5.390625 3.5625 -5.046875 C 3.1875 -4.148438 2.929688 -3.554688 2.796875 -3.265625 L 2.484375 -2.625 C 2.316406 -2.25 2.234375 -1.984375 2.234375 -1.828125 C 2.234375 -1.671875 2.253906 -1.5625 2.296875 -1.5 C 2.347656 -1.4375 2.4375 -1.40625 2.5625 -1.40625 C 2.695312 -1.40625 2.847656 -1.460938 3.015625 -1.578125 C 3.191406 -1.703125 3.382812 -1.863281 3.59375 -2.0625 C 3.800781 -2.269531 4.015625 -2.507812 4.234375 -2.78125 C 4.453125 -3.050781 4.664062 -3.332031 4.875 -3.625 C 5.289062 -4.1875 5.597656 -4.640625 5.796875 -4.984375 C 6.960938 -7.054688 7.585938 -8.140625 7.671875 -8.234375 C 7.847656 -8.472656 8.023438 -8.59375 8.203125 -8.59375 C 8.390625 -8.59375 8.550781 -8.570312 8.6875 -8.53125 C 8.832031 -8.488281 8.957031 -8.425781 9.0625 -8.34375 C 9.289062 -8.175781 9.363281 -8.007812 9.28125 -7.84375 C 7.925781 -5.019531 7.195312 -3.25 7.09375 -2.53125 C 7.070312 -2.28125 7.0625 -2.109375 7.0625 -2.015625 C 7.0625 -1.585938 7.1875 -1.375 7.4375 -1.375 C 7.675781 -1.375 7.875 -1.414062 8.03125 -1.5 C 8.1875 -1.59375 8.289062 -1.640625 8.34375 -1.640625 Z M 8.34375 -1.640625 "/></g></g></g><g fill="#f2a021" fill-opacity="1"><g transform="translate(198.226003, 289.857607)"><g><path d="M 0.625 -0.203125 C 0.519531 -0.285156 0.429688 -0.375 0.359375 -0.46875 C 0.296875 -0.570312 0.257812 -0.660156 0.25 -0.734375 C 0.25 -0.816406 0.265625 -0.910156 0.296875 -1.015625 C 0.335938 -1.117188 0.390625 -1.25 0.453125 -1.40625 C 1.585938 -4.1875 2.15625 -6.050781 2.15625 -7 C 2.132812 -7.269531 2.039062 -7.460938 1.875 -7.578125 L 1.703125 -7.6875 C 1.660156 -7.726562 1.632812 -7.796875 1.625 -7.890625 C 1.625 -7.984375 1.660156 -8.070312 1.734375 -8.15625 C 1.804688 -8.25 1.898438 -8.332031 2.015625 -8.40625 C 2.253906 -8.53125 2.5 -8.59375 2.75 -8.59375 C 3 -8.59375 3.191406 -8.5625 3.328125 -8.5 C 3.472656 -8.445312 3.597656 -8.375 3.703125 -8.28125 C 3.910156 -8.082031 4.015625 -7.875 4.015625 -7.65625 C 4.023438 -7.4375 4.003906 -7.210938 3.953125 -6.984375 C 3.898438 -6.753906 3.835938 -6.53125 3.765625 -6.3125 C 3.691406 -6.09375 3.617188 -5.882812 3.546875 -5.6875 C 3.472656 -5.488281 3.425781 -5.34375 3.40625 -5.25 C 3.363281 -5.0625 3.347656 -4.941406 3.359375 -4.890625 C 3.484375 -5.003906 3.5625 -5.117188 3.59375 -5.234375 L 3.921875 -5.84375 C 4.640625 -7.132812 5.34375 -7.992188 6.03125 -8.421875 C 6.226562 -8.535156 6.460938 -8.59375 6.734375 -8.59375 C 7.015625 -8.59375 7.238281 -8.492188 7.40625 -8.296875 C 7.582031 -8.097656 7.675781 -7.878906 7.6875 -7.640625 C 7.695312 -7.398438 7.679688 -7.203125 7.640625 -7.046875 C 7.597656 -6.890625 7.535156 -6.742188 7.453125 -6.609375 C 7.265625 -6.296875 7.046875 -6.140625 6.796875 -6.140625 C 6.722656 -6.140625 6.65625 -6.164062 6.59375 -6.21875 L 6.40625 -6.375 C 6.226562 -6.53125 6.050781 -6.609375 5.875 -6.609375 C 5.707031 -6.609375 5.503906 -6.5 5.265625 -6.28125 C 5.023438 -6.0625 4.773438 -5.773438 4.515625 -5.421875 C 3.640625 -4.265625 2.925781 -2.972656 2.375 -1.546875 L 2.015625 -0.578125 C 1.910156 -0.335938 1.820312 -0.164062 1.75 -0.0625 C 1.6875 0.03125 1.582031 0.078125 1.4375 0.078125 C 1.300781 0.078125 1.160156 0.0507812 1.015625 0 C 0.867188 -0.0507812 0.738281 -0.117188 0.625 -0.203125 Z M 0.625 -0.203125 "/></g></g></g><g fill="#f2a021" fill-opacity="1"><g transform="translate(205.15397, 289.857607)"><g/></g></g><g fill="#f2a021" fill-opacity="1"><g transform="translate(210.372762, 289.857607)"><g><path d="M 8.890625 -1.671875 C 9.003906 -1.671875 9.0625 -1.613281 9.0625 -1.5 C 9.0625 -1.019531 8.816406 -0.609375 8.328125 -0.265625 C 8.003906 -0.0351562 7.695312 0.078125 7.40625 0.078125 C 7.113281 0.078125 6.878906 0.046875 6.703125 -0.015625 C 6.535156 -0.078125 6.382812 -0.179688 6.25 -0.328125 C 5.9375 -0.660156 5.78125 -1.117188 5.78125 -1.703125 C 5.78125 -1.816406 5.800781 -2.003906 5.84375 -2.265625 C 5.394531 -1.566406 5.007812 -1.078125 4.6875 -0.796875 C 4.039062 -0.210938 3.410156 0.078125 2.796875 0.078125 C 1.804688 0.078125 1.160156 -0.363281 0.859375 -1.25 C 0.753906 -1.570312 0.703125 -1.976562 0.703125 -2.46875 C 0.703125 -2.96875 0.773438 -3.46875 0.921875 -3.96875 C 1.066406 -4.46875 1.269531 -4.941406 1.53125 -5.390625 C 1.789062 -5.847656 2.085938 -6.269531 2.421875 -6.65625 C 2.765625 -7.050781 3.125 -7.394531 3.5 -7.6875 C 4.3125 -8.289062 5.039062 -8.59375 5.6875 -8.59375 C 6.34375 -8.59375 6.867188 -8.328125 7.265625 -7.796875 C 8.222656 -11.085938 8.945312 -13.03125 9.4375 -13.625 C 9.644531 -13.875 9.859375 -14 10.078125 -14 C 10.460938 -14 10.75 -13.890625 10.9375 -13.671875 C 11 -13.597656 11.03125 -13.523438 11.03125 -13.453125 C 11.03125 -13.378906 10.984375 -13.242188 10.890625 -13.046875 C 10.804688 -12.859375 10.679688 -12.550781 10.515625 -12.125 C 10.015625 -10.820312 9.664062 -9.867188 9.46875 -9.265625 C 8.957031 -7.722656 8.613281 -6.660156 8.4375 -6.078125 L 7.984375 -4.546875 C 7.585938 -3.171875 7.390625 -2.296875 7.390625 -1.921875 C 7.390625 -1.554688 7.523438 -1.375 7.796875 -1.375 C 8.046875 -1.375 8.25 -1.410156 8.40625 -1.484375 L 8.71875 -1.625 C 8.78125 -1.65625 8.835938 -1.671875 8.890625 -1.671875 Z M 3.1875 -1.15625 C 3.757812 -1.15625 4.410156 -1.710938 5.140625 -2.828125 C 5.910156 -3.984375 6.445312 -5.238281 6.75 -6.59375 C 6.726562 -6.96875 6.570312 -7.242188 6.28125 -7.421875 C 6.1875 -7.484375 6.035156 -7.515625 5.828125 -7.515625 C 5.628906 -7.515625 5.394531 -7.441406 5.125 -7.296875 C 4.851562 -7.148438 4.59375 -6.953125 4.34375 -6.703125 C 4.09375 -6.453125 3.859375 -6.160156 3.640625 -5.828125 C 3.421875 -5.492188 3.234375 -5.132812 3.078125 -4.75 C 2.722656 -3.9375 2.546875 -3.132812 2.546875 -2.34375 C 2.546875 -1.550781 2.757812 -1.15625 3.1875 -1.15625 Z M 3.1875 -1.15625 "/></g></g></g><g fill="#f2a021" fill-opacity="1"><g transform="translate(219.8396, 289.857607)"><g><path d="M 0.625 -0.203125 C 0.519531 -0.285156 0.429688 -0.375 0.359375 -0.46875 C 0.296875 -0.570312 0.257812 -0.660156 0.25 -0.734375 C 0.25 -0.816406 0.265625 -0.910156 0.296875 -1.015625 C 0.335938 -1.117188 0.390625 -1.25 0.453125 -1.40625 C 1.585938 -4.1875 2.15625 -6.050781 2.15625 -7 C 2.132812 -7.269531 2.039062 -7.460938 1.875 -7.578125 L 1.703125 -7.6875 C 1.660156 -7.726562 1.632812 -7.796875 1.625 -7.890625 C 1.625 -7.984375 1.660156 -8.070312 1.734375 -8.15625 C 1.804688 -8.25 1.898438 -8.332031 2.015625 -8.40625 C 2.253906 -8.53125 2.5 -8.59375 2.75 -8.59375 C 3 -8.59375 3.191406 -8.5625 3.328125 -8.5 C 3.472656 -8.445312 3.597656 -8.375 3.703125 -8.28125 C 3.910156 -8.082031 4.015625 -7.875 4.015625 -7.65625 C 4.023438 -7.4375 4.003906 -7.210938 3.953125 -6.984375 C 3.898438 -6.753906 3.835938 -6.53125 3.765625 -6.3125 C 3.691406 -6.09375 3.617188 -5.882812 3.546875 -5.6875 C 3.472656 -5.488281 3.425781 -5.34375 3.40625 -5.25 C 3.363281 -5.0625 3.347656 -4.941406 3.359375 -4.890625 C 3.484375 -5.003906 3.5625 -5.117188 3.59375 -5.234375 L 3.921875 -5.84375 C 4.640625 -7.132812 5.34375 -7.992188 6.03125 -8.421875 C 6.226562 -8.535156 6.460938 -8.59375 6.734375 -8.59375 C 7.015625 -8.59375 7.238281 -8.492188 7.40625 -8.296875 C 7.582031 -8.097656 7.675781 -7.878906 7.6875 -7.640625 C 7.695312 -7.398438 7.679688 -7.203125 7.640625 -7.046875 C 7.597656 -6.890625 7.535156 -6.742188 7.453125 -6.609375 C 7.265625 -6.296875 7.046875 -6.140625 6.796875 -6.140625 C 6.722656 -6.140625 6.65625 -6.164062 6.59375 -6.21875 L 6.40625 -6.375 C 6.226562 -6.53125 6.050781 -6.609375 5.875 -6.609375 C 5.707031 -6.609375 5.503906 -6.5 5.265625 -6.28125 C 5.023438 -6.0625 4.773438 -5.773438 4.515625 -5.421875 C 3.640625 -4.265625 2.925781 -2.972656 2.375 -1.546875 L 2.015625 -0.578125 C 1.910156 -0.335938 1.820312 -0.164062 1.75 -0.0625 C 1.6875 0.03125 1.582031 0.078125 1.4375 0.078125 C 1.300781 0.078125 1.160156 0.0507812 1.015625 0 C 0.867188 -0.0507812 0.738281 -0.117188 0.625 -0.203125 Z M 0.625 -0.203125 "/></g></g></g><g fill="#f2a021" fill-opacity="1"><g transform="translate(226.767567, 289.857607)"><g><path d="M 0.671875 -2.90625 C 0.703125 -3.382812 0.785156 -3.84375 0.921875 -4.28125 C 1.054688 -4.726562 1.238281 -5.15625 1.46875 -5.5625 C 1.707031 -5.976562 1.984375 -6.367188 2.296875 -6.734375 C 2.609375 -7.097656 2.945312 -7.421875 3.3125 -7.703125 C 4.101562 -8.296875 4.898438 -8.59375 5.703125 -8.59375 C 6.648438 -8.59375 7.28125 -8.203125 7.59375 -7.421875 C 7.707031 -7.148438 7.757812 -6.832031 7.75 -6.46875 C 7.75 -6.113281 7.679688 -5.78125 7.546875 -5.46875 C 7.421875 -5.164062 7.238281 -4.890625 7 -4.640625 C 6.757812 -4.390625 6.476562 -4.160156 6.15625 -3.953125 C 5.832031 -3.753906 5.484375 -3.585938 5.109375 -3.453125 C 4.316406 -3.171875 3.472656 -3.023438 2.578125 -3.015625 C 2.554688 -2.941406 2.539062 -2.828125 2.53125 -2.671875 C 2.53125 -2.515625 2.546875 -2.34375 2.578125 -2.15625 C 2.617188 -1.96875 2.6875 -1.796875 2.78125 -1.640625 C 2.976562 -1.304688 3.269531 -1.140625 3.65625 -1.140625 C 4.289062 -1.140625 4.914062 -1.328125 5.53125 -1.703125 C 5.738281 -1.835938 5.910156 -1.972656 6.046875 -2.109375 C 6.179688 -2.242188 6.300781 -2.3125 6.40625 -2.3125 C 6.507812 -2.3125 6.597656 -2.25 6.671875 -2.125 C 6.742188 -2.007812 6.78125 -1.878906 6.78125 -1.734375 C 6.78125 -1.429688 6.695312 -1.175781 6.53125 -0.96875 C 5.832031 -0.269531 4.796875 0.078125 3.421875 0.078125 C 2.609375 0.078125 1.953125 -0.160156 1.453125 -0.640625 C 0.898438 -1.203125 0.640625 -1.957031 0.671875 -2.90625 Z M 5.53125 -7.484375 C 4.945312 -7.484375 4.382812 -7.085938 3.84375 -6.296875 C 3.394531 -5.609375 3.03125 -4.796875 2.75 -3.859375 C 3.675781 -3.953125 4.476562 -4.316406 5.15625 -4.953125 C 5.78125 -5.546875 6.09375 -6.113281 6.09375 -6.65625 C 6.09375 -7.207031 5.90625 -7.484375 5.53125 -7.484375 Z M 5.53125 -7.484375 "/></g></g></g><g fill="#f2a021" fill-opacity="1"><g transform="translate(234.782436, 289.857607)"><g><path d="M 7 -2.203125 C 7 -1.691406 7.179688 -1.4375 7.546875 -1.4375 C 7.796875 -1.4375 8 -1.472656 8.15625 -1.546875 C 8.320312 -1.628906 8.429688 -1.671875 8.484375 -1.671875 C 8.597656 -1.671875 8.65625 -1.613281 8.65625 -1.5 C 8.65625 -1.019531 8.410156 -0.609375 7.921875 -0.265625 C 7.390625 0.0976562 6.851562 0.1875 6.3125 0 C 5.945312 -0.125 5.679688 -0.398438 5.515625 -0.828125 C 5.429688 -1.035156 5.390625 -1.226562 5.390625 -1.40625 C 5.390625 -1.695312 5.414062 -2.003906 5.46875 -2.328125 C 4.957031 -1.273438 4.316406 -0.550781 3.546875 -0.15625 C 3.242188 0 2.921875 0.078125 2.578125 0.078125 C 2.234375 0.078125 1.9375 0.0078125 1.6875 -0.125 C 1.4375 -0.269531 1.222656 -0.46875 1.046875 -0.71875 C 0.679688 -1.238281 0.515625 -1.890625 0.546875 -2.671875 C 0.585938 -3.660156 0.878906 -4.625 1.421875 -5.5625 C 1.929688 -6.445312 2.566406 -7.171875 3.328125 -7.734375 C 4.097656 -8.304688 4.816406 -8.59375 5.484375 -8.59375 C 6.160156 -8.59375 6.703125 -8.285156 7.109375 -7.671875 C 7.492188 -8.285156 7.832031 -8.59375 8.125 -8.59375 C 8.4375 -8.59375 8.675781 -8.535156 8.84375 -8.421875 C 9.144531 -8.191406 9.25 -8 9.15625 -7.84375 C 7.769531 -4.988281 7.054688 -3.21875 7.015625 -2.53125 C 7.003906 -2.425781 7 -2.316406 7 -2.203125 Z M 2.390625 -2.171875 C 2.390625 -1.503906 2.601562 -1.171875 3.03125 -1.171875 C 3.363281 -1.171875 3.765625 -1.453125 4.234375 -2.015625 C 4.929688 -2.828125 5.550781 -3.921875 6.09375 -5.296875 C 6.257812 -5.722656 6.398438 -6.15625 6.515625 -6.59375 C 6.492188 -6.96875 6.335938 -7.242188 6.046875 -7.421875 C 5.953125 -7.484375 5.804688 -7.515625 5.609375 -7.515625 C 5.410156 -7.515625 5.175781 -7.441406 4.90625 -7.296875 C 4.644531 -7.148438 4.390625 -6.953125 4.140625 -6.703125 C 3.898438 -6.453125 3.671875 -6.15625 3.453125 -5.8125 C 3.242188 -5.476562 3.0625 -5.113281 2.90625 -4.71875 C 2.5625 -3.863281 2.390625 -3.015625 2.390625 -2.171875 Z M 2.390625 -2.171875 "/></g></g></g><g fill="#f2a021" fill-opacity="1"><g transform="translate(243.983771, 289.857607)"><g><path d="M 6.859375 -7.015625 C 6.535156 -7.015625 5.945312 -6.550781 5.09375 -5.625 C 4.457031 -4.90625 3.992188 -4.363281 3.703125 -4 L 2.96875 -3.046875 C 2.644531 -2.441406 2.390625 -1.9375 2.203125 -1.53125 L 1.765625 -0.5625 C 1.640625 -0.320312 1.535156 -0.15625 1.453125 -0.0625 C 1.367188 0.03125 1.253906 0.078125 1.109375 0.078125 C 0.960938 0.078125 0.820312 0.0507812 0.6875 0 C 0.550781 -0.0507812 0.429688 -0.117188 0.328125 -0.203125 C 0.117188 -0.378906 0.015625 -0.570312 0.015625 -0.78125 C 0.015625 -0.863281 0.078125 -1.023438 0.203125 -1.265625 L 0.515625 -1.9375 C 0.617188 -2.132812 0.734375 -2.390625 0.859375 -2.703125 L 1.328125 -3.84375 C 1.984375 -5.476562 2.3125 -6.53125 2.3125 -7 C 2.3125 -7.257812 2.226562 -7.453125 2.0625 -7.578125 L 1.890625 -7.6875 C 1.835938 -7.726562 1.8125 -7.796875 1.8125 -7.890625 C 1.8125 -7.984375 1.847656 -8.070312 1.921875 -8.15625 C 1.992188 -8.25 2.09375 -8.332031 2.21875 -8.40625 C 2.46875 -8.53125 2.71875 -8.59375 2.96875 -8.59375 C 3.21875 -8.59375 3.414062 -8.5625 3.5625 -8.5 C 3.707031 -8.445312 3.832031 -8.375 3.9375 -8.28125 C 4.144531 -8.09375 4.25 -7.890625 4.25 -7.671875 C 4.25 -7.460938 4.21875 -7.25 4.15625 -7.03125 C 4.101562 -6.820312 4.035156 -6.609375 3.953125 -6.390625 C 3.867188 -6.171875 3.78125 -5.960938 3.6875 -5.765625 C 3.46875 -5.285156 3.332031 -4.988281 3.28125 -4.875 C 3.226562 -4.769531 3.210938 -4.734375 3.234375 -4.765625 C 4.242188 -6.078125 4.851562 -6.851562 5.0625 -7.09375 C 5.488281 -7.582031 5.820312 -7.921875 6.0625 -8.109375 C 6.5 -8.429688 6.910156 -8.59375 7.296875 -8.59375 C 7.691406 -8.59375 8.003906 -8.46875 8.234375 -8.21875 C 8.460938 -7.976562 8.578125 -7.660156 8.578125 -7.265625 C 8.578125 -6.910156 8.488281 -6.5 8.3125 -6.03125 C 8.132812 -5.5625 8.015625 -5.234375 7.953125 -5.046875 L 9.1875 -6.65625 L 9.859375 -7.46875 C 10.265625 -7.925781 10.625 -8.226562 10.9375 -8.375 C 11.25 -8.519531 11.503906 -8.59375 11.703125 -8.59375 C 11.898438 -8.59375 12.09375 -8.554688 12.28125 -8.484375 C 12.46875 -8.410156 12.628906 -8.304688 12.765625 -8.171875 C 13.046875 -7.898438 13.1875 -7.539062 13.1875 -7.09375 C 13.1875 -6.664062 13.085938 -6.222656 12.890625 -5.765625 C 12.691406 -5.316406 12.515625 -4.945312 12.359375 -4.65625 C 12.210938 -4.363281 12.070312 -4.070312 11.9375 -3.78125 C 11.53125 -2.894531 11.328125 -2.238281 11.328125 -1.8125 C 11.328125 -1.519531 11.453125 -1.375 11.703125 -1.375 C 11.929688 -1.375 12.140625 -1.421875 12.328125 -1.515625 C 12.523438 -1.617188 12.648438 -1.671875 12.703125 -1.671875 C 12.816406 -1.671875 12.875 -1.613281 12.875 -1.5 C 12.875 -1 12.625 -0.582031 12.125 -0.25 C 11.78125 -0.03125 11.46875 0.078125 11.1875 0.078125 C 10.914062 0.078125 10.691406 0.046875 10.515625 -0.015625 C 10.347656 -0.078125 10.191406 -0.179688 10.046875 -0.328125 C 9.742188 -0.648438 9.59375 -1.050781 9.59375 -1.53125 C 9.59375 -2.019531 9.648438 -2.460938 9.765625 -2.859375 C 9.890625 -3.265625 10.035156 -3.65625 10.203125 -4.03125 C 10.367188 -4.414062 10.535156 -4.765625 10.703125 -5.078125 C 10.867188 -5.398438 11 -5.65625 11.09375 -5.84375 C 11.269531 -6.226562 11.359375 -6.515625 11.359375 -6.703125 C 11.359375 -6.910156 11.242188 -7.015625 11.015625 -7.015625 C 10.710938 -7.015625 10.175781 -6.519531 9.40625 -5.53125 C 8.820312 -4.769531 8.414062 -4.21875 8.1875 -3.875 L 7.609375 -3.046875 C 7.285156 -2.441406 7.039062 -1.9375 6.875 -1.53125 L 6.453125 -0.5625 C 6.347656 -0.320312 6.253906 -0.15625 6.171875 -0.0625 C 6.097656 0.03125 5.988281 0.078125 5.84375 0.078125 C 5.707031 0.078125 5.570312 0.0546875 5.4375 0.015625 C 5.3125 -0.0234375 5.203125 -0.0820312 5.109375 -0.15625 C 4.898438 -0.320312 4.796875 -0.492188 4.796875 -0.671875 C 4.796875 -0.847656 4.851562 -1.09375 4.96875 -1.40625 C 5.082031 -1.71875 5.226562 -2.066406 5.40625 -2.453125 L 6.578125 -4.921875 C 6.992188 -5.828125 7.203125 -6.398438 7.203125 -6.640625 C 7.203125 -6.890625 7.085938 -7.015625 6.859375 -7.015625 Z M 7.671875 -4.6875 C 7.679688 -4.6875 7.6875 -4.6875 7.6875 -4.6875 L 7.6875 -4.703125 C 7.675781 -4.691406 7.671875 -4.6875 7.671875 -4.6875 Z M 7.671875 -4.6875 "/></g></g></g></svg>